<?xml version="1.0" encoding="UTF-8"?>
<svg width="30px" height="30px" viewBox="0 0 30 30" version="1.1" xmlns="http://www.w3.org/2000/svg" xmlns:xlink="http://www.w3.org/1999/xlink">
    <title>download</title>
    <g id="download" stroke="none" stroke-width="1" fill="none" fill-rule="evenodd">
        <g id="447086_arrow_down_download_technology_transfers_icon" transform="translate(1.000000, 1.000000)" fill="#FFFFFF" fill-rule="nonzero">
            <path d="M26.994766,20.7498207 C26.2991971,20.7498207 25.7353293,21.3156822 25.7353293,22.0137105 C25.7353293,24.4129345 23.7907591,26.3643804 21.4003483,26.3643804 L6.85421431,26.3643804 C4.46344363,26.3643804 2.51887338,24.4129345 2.51887338,22.0137105 C2.51887338,21.3156822 1.95500558,20.7498207 1.25943669,20.7498207 C0.563867799,20.7498207 0,21.3156822 0,22.0137105 C0,25.8064633 3.07482472,28.89216 6.85421431,28.89216 L21.4003483,28.89216 C25.1797378,28.89216 28.2542027,25.8064633 28.2542027,22.0137105 C28.2542027,21.3156822 27.6899751,20.7498207 26.994766,20.7498207 Z" id="Path"></path>
            <path d="M13.2363198,22.7514611 C13.4824497,22.9984612 13.8045057,23.1216002 14.1269214,23.1216002 C14.4493372,23.1216002 14.7713932,22.9984612 15.0175231,22.7514611 L23.0818762,14.6589552 C23.4420751,14.2974827 23.5500268,13.75401 23.354994,13.2816764 C23.1599612,12.8093427 22.7011664,12.5016758 22.1916343,12.5016758 L19.4428238,12.5016758 L19.4428238,1.26388981 C19.4428238,0.565861525 18.878956,0 18.1833871,0 L10.0711755,0 C9.37560657,0 8.81173877,0.565861525 8.81173877,1.26388981 L8.81173877,12.5016758 L6.06292823,12.5016758 C5.55339613,12.5016758 5.09460134,12.8097038 4.89956857,13.2816764 C4.7045358,13.7543712 4.81248752,14.2974827 5.17268641,14.6589552 L13.2363198,22.7514611 Z" id="Path"></path>
        </g>
    </g>
</svg>