<svg width="800" height="239" viewBox="0 0 800 239" fill="none" xmlns="http://www.w3.org/2000/svg">
<path d="M193.039 206.556C170.718 225.047 132.875 236.596 103.815 238.237C64.9918 240.637 31.4704 228.469 1.1444 204.108C-1.1469 202.264 0.642415 199.469 3.36019 200.836C36.4535 217.332 65.8164 226.343 102.852 225.417C130.285 224.731 164.672 213.968 189.46 201.851C193.407 199.948 196.728 203.387 193.039 206.556Z" fill="#018BF6"/>
<g filter="url(#filter0_d_1295_2973)">
<path d="M54.7374 174.364L54.7284 174.373V18.8863C54.7284 17.23 56.0806 15.7201 57.9615 15.7201H113.523C142.762 15.7201 166.713 39.1242 166.713 67.3419C166.713 95.5959 142.725 119.929 113.767 119.929H78.4371H77.0446V121.321V177.697C77.0446 179.305 75.4958 180.863 73.8115 180.863H57.9706C56.0897 180.863 54.7374 179.353 54.7374 177.697V174.364ZM77.0446 97.8222V99.2146H78.4371H113.043C130.651 99.2146 144.406 85.1262 144.406 67.1184C144.406 49.9793 130.563 36.9351 113.043 36.9351H78.4371H77.0446V38.3275V97.8222Z" fill="#018BF6" stroke="#018BF6" stroke-width="2.78489"/>
</g>
<path fill-rule="evenodd" clip-rule="evenodd" d="M369.647 129.111V35.475C369.647 34.0627 370.785 32.7874 372.35 32.7874H404.813C422.324 32.7874 436.704 46.9318 436.704 64.0432C436.704 81.1546 422.324 95.8682 404.955 95.8682H384.313V129.105C384.313 130.518 383.033 131.793 381.611 131.793H372.355C370.79 131.793 369.653 130.518 369.653 129.105L369.647 129.111ZM384.313 82.0136H404.532C414.354 82.0136 422.043 74.0929 422.043 63.9114C422.043 54.2938 414.354 46.9371 404.532 46.9371H384.313V82.0136ZM443.114 99.125C443.114 80.7382 456.072 65.0392 475.862 65.0392C492.945 65.0392 505.902 77.629 505.902 95.025C505.902 96.158 505.76 98.4188 505.617 99.5518C505.474 101.249 504.051 102.382 502.629 102.382H457.209C457.351 111.151 465.322 120.205 476.856 120.205C484.404 120.205 488.957 117.517 492.945 114.687C494.368 113.696 495.647 113.275 496.79 114.972L500.635 120.911C501.772 122.323 502.343 123.598 500.349 125.295C495.653 129.395 486.963 133.358 476.005 133.358C456.072 133.358 443.114 117.802 443.114 99.1302V99.125ZM457.923 91.9104H491.808C491.522 83.9898 485.26 77.0598 475.577 77.0598C465.184 77.0598 458.917 83.7052 457.923 91.9104ZM535.377 128.826V162.348C535.377 164.187 534.097 165.457 531.96 165.457H523.985C522.277 165.457 520.854 164.045 520.854 162.348V69.566C520.854 68.0114 522.277 66.4568 523.985 66.4568H527.544C528.967 66.4568 529.824 67.0207 530.39 68.5806L532.098 72.8228C533.235 71.6898 540.639 65.0445 552.74 65.0445C570.822 65.0445 583.78 80.4589 583.78 99.1302C583.78 117.802 570.114 133.358 552.174 133.358C543.633 133.358 536.514 129.538 535.372 128.831L535.377 128.826ZM535.091 115.109C535.091 115.109 541.496 119.92 550.323 119.92C561.001 119.92 569.542 110.866 569.542 99.1302C569.542 87.3941 562.138 78.4827 550.889 78.4827C541.348 78.4827 535.657 85.6972 535.086 87.6787V115.119L535.091 115.109ZM599.017 103.367C599.017 120.479 603.856 133.353 623.504 133.353C636.89 133.353 642.866 125.859 644.289 124.442L645.997 129.111C646.568 130.665 647.277 131.798 648.985 131.798H652.402C654.11 131.798 655.676 130.386 655.676 128.689V69.566C655.676 68.0114 654.11 66.4568 652.402 66.4568H645.14C642.718 66.4568 641.438 66.8837 641.438 69.566V109.169C640.867 112.142 635.599 119.92 626.064 119.92C617.665 119.92 613.249 115.109 613.249 104.363V69.566C613.249 68.0114 611.826 66.4568 610.118 66.4568H602.142C600.577 66.4568 599.011 68.0114 599.011 69.566V103.367H599.017ZM676.043 128.684C676.043 130.381 677.465 131.793 679.174 131.793H687.149C688.715 131.793 690.28 130.381 690.28 128.684V35.9019C690.28 34.3472 688.715 32.7926 687.149 32.7926H679.174C677.465 32.7926 676.043 34.3472 676.043 35.9019V128.684V128.684Z" fill="#FFFFFD"/>
<path d="M275.248 224.527V193.459H294.726V197.495H279.936V206.96H293.71V210.98H279.936V220.492H294.908V224.527H275.248ZM309.431 210.692V224.527H304.895V201.226H309.249V205.019H309.537C310.073 203.785 310.912 202.794 312.055 202.045C313.208 201.297 314.659 200.923 316.409 200.923C317.996 200.923 319.387 201.257 320.58 201.924C321.774 202.581 322.699 203.562 323.356 204.867C324.014 206.172 324.342 207.785 324.342 209.706V224.527H319.807V210.252C319.807 208.563 319.367 207.244 318.487 206.293C317.607 205.332 316.399 204.852 314.861 204.852C313.81 204.852 312.874 205.079 312.055 205.534C311.246 205.99 310.604 206.657 310.128 207.537C309.663 208.407 309.431 209.458 309.431 210.692ZM341.478 225.043C340.002 225.043 338.667 224.77 337.473 224.223C336.28 223.667 335.334 222.863 334.637 221.811C333.949 220.76 333.605 219.47 333.605 217.943C333.605 216.629 333.858 215.546 334.364 214.697C334.869 213.847 335.552 213.175 336.411 212.679C337.271 212.184 338.232 211.81 339.294 211.557C340.356 211.304 341.438 211.112 342.54 210.98C343.936 210.819 345.068 210.687 345.938 210.586C346.808 210.475 347.44 210.298 347.834 210.055C348.229 209.812 348.426 209.418 348.426 208.872V208.766C348.426 207.441 348.052 206.414 347.303 205.686C346.565 204.958 345.463 204.594 343.996 204.594C342.469 204.594 341.266 204.933 340.386 205.61C339.516 206.278 338.914 207.021 338.581 207.84L334.318 206.869C334.824 205.454 335.562 204.311 336.533 203.441C337.514 202.561 338.641 201.924 339.916 201.53C341.19 201.125 342.53 200.923 343.936 200.923C344.866 200.923 345.852 201.034 346.894 201.257C347.945 201.469 348.926 201.863 349.837 202.44C350.757 203.016 351.51 203.84 352.097 204.912C352.683 205.974 352.977 207.355 352.977 209.054V224.527H348.547V221.341H348.365C348.072 221.928 347.632 222.504 347.045 223.071C346.459 223.637 345.705 224.107 344.785 224.481C343.865 224.856 342.762 225.043 341.478 225.043ZM342.464 221.402C343.718 221.402 344.79 221.154 345.68 220.659C346.58 220.163 347.263 219.516 347.728 218.717C348.203 217.908 348.441 217.043 348.441 216.123V213.119C348.279 213.281 347.966 213.433 347.5 213.574C347.045 213.706 346.525 213.822 345.938 213.923C345.351 214.014 344.78 214.1 344.224 214.181C343.668 214.252 343.202 214.313 342.828 214.363C341.948 214.474 341.144 214.662 340.416 214.924C339.698 215.187 339.122 215.567 338.687 216.062C338.262 216.548 338.05 217.195 338.05 218.004C338.05 219.126 338.464 219.976 339.294 220.552C340.123 221.119 341.18 221.402 342.464 221.402ZM363.654 224.527V193.459H368.19V205.004H368.463C368.726 204.518 369.105 203.957 369.6 203.32C370.096 202.683 370.784 202.126 371.663 201.651C372.543 201.166 373.706 200.923 375.152 200.923C377.033 200.923 378.712 201.398 380.189 202.349C381.665 203.299 382.823 204.67 383.663 206.46C384.512 208.25 384.937 210.404 384.937 212.922C384.937 215.44 384.517 217.599 383.678 219.4C382.838 221.19 381.686 222.57 380.219 223.541C378.753 224.502 377.079 224.982 375.198 224.982C373.782 224.982 372.624 224.744 371.724 224.269C370.834 223.794 370.136 223.237 369.631 222.6C369.125 221.963 368.736 221.397 368.463 220.901H368.083V224.527H363.654ZM368.099 212.877C368.099 214.515 368.336 215.951 368.812 217.185C369.287 218.419 369.975 219.384 370.875 220.082C371.775 220.77 372.877 221.114 374.182 221.114C375.537 221.114 376.669 220.755 377.58 220.037C378.49 219.308 379.177 218.322 379.643 217.079C380.118 215.835 380.356 214.434 380.356 212.877C380.356 211.339 380.123 209.959 379.658 208.735C379.203 207.512 378.515 206.546 377.595 205.838C376.685 205.13 375.547 204.776 374.182 204.776C372.867 204.776 371.754 205.115 370.844 205.792C369.944 206.47 369.262 207.415 368.796 208.629C368.331 209.843 368.099 211.258 368.099 212.877ZM398.838 193.459V224.527H394.302V193.459H398.838ZM409.211 224.527V201.226H413.747V224.527H409.211ZM411.502 197.631C410.713 197.631 410.036 197.368 409.469 196.842C408.913 196.306 408.635 195.669 408.635 194.931C408.635 194.182 408.913 193.545 409.469 193.019C410.036 192.483 410.713 192.215 411.502 192.215C412.291 192.215 412.963 192.483 413.52 193.019C414.086 193.545 414.369 194.182 414.369 194.931C414.369 195.669 414.086 196.306 413.52 196.842C412.963 197.368 412.291 197.631 411.502 197.631ZM428.657 210.692V224.527H424.121V201.226H428.475V205.019H428.763C429.299 203.785 430.138 202.794 431.281 202.045C432.434 201.297 433.885 200.923 435.635 200.923C437.222 200.923 438.613 201.257 439.806 201.924C441 202.581 441.925 203.562 442.582 204.867C443.24 206.172 443.568 207.785 443.568 209.706V224.527H439.033V210.252C439.033 208.563 438.593 207.244 437.713 206.293C436.833 205.332 435.625 204.852 434.087 204.852C433.036 204.852 432.1 205.079 431.281 205.534C430.472 205.99 429.83 206.657 429.354 207.537C428.889 208.407 428.657 209.458 428.657 210.692ZM463.692 233.75C461.842 233.75 460.249 233.507 458.914 233.022C457.589 232.536 456.507 231.894 455.668 231.095C454.828 230.296 454.201 229.422 453.787 228.471L457.685 226.863C457.958 227.308 458.322 227.778 458.777 228.274C459.243 228.779 459.87 229.209 460.659 229.563C461.457 229.917 462.484 230.094 463.738 230.094C465.457 230.094 466.878 229.674 468.001 228.835C469.123 228.006 469.684 226.681 469.684 224.861V220.279H469.396C469.123 220.775 468.729 221.326 468.213 221.933C467.707 222.54 467.01 223.066 466.12 223.51C465.23 223.955 464.072 224.178 462.646 224.178C460.805 224.178 459.147 223.748 457.67 222.889C456.204 222.019 455.041 220.739 454.181 219.051C453.332 217.352 452.907 215.263 452.907 212.786C452.907 210.308 453.327 208.184 454.166 206.414C455.015 204.644 456.178 203.289 457.655 202.349C459.131 201.398 460.805 200.923 462.676 200.923C464.122 200.923 465.29 201.166 466.18 201.651C467.07 202.126 467.763 202.683 468.259 203.32C468.764 203.957 469.154 204.518 469.427 205.004H469.76V201.226H474.205V225.043C474.205 227.045 473.74 228.688 472.809 229.973C471.879 231.257 470.62 232.208 469.032 232.825C467.455 233.442 465.675 233.75 463.692 233.75ZM463.647 220.416C464.952 220.416 466.054 220.112 466.954 219.506C467.864 218.889 468.552 218.009 469.017 216.866C469.492 215.713 469.73 214.333 469.73 212.725C469.73 211.157 469.497 209.777 469.032 208.584C468.567 207.39 467.884 206.46 466.984 205.792C466.084 205.115 464.972 204.776 463.647 204.776C462.282 204.776 461.144 205.13 460.234 205.838C459.324 206.536 458.636 207.486 458.171 208.69C457.716 209.893 457.488 211.238 457.488 212.725C457.488 214.252 457.721 215.592 458.186 216.745C458.651 217.898 459.339 218.798 460.249 219.445C461.169 220.092 462.302 220.416 463.647 220.416ZM500.501 224.527V193.459H511.575C513.992 193.459 515.994 193.899 517.582 194.779C519.17 195.659 520.358 196.862 521.147 198.39C521.936 199.907 522.33 201.616 522.33 203.517C522.33 205.428 521.931 207.147 521.132 208.675C520.343 210.192 519.149 211.395 517.552 212.285C515.964 213.165 513.966 213.605 511.56 213.605H503.944V209.63H511.135C512.662 209.63 513.901 209.367 514.851 208.841C515.802 208.305 516.5 207.577 516.945 206.657C517.39 205.737 517.612 204.69 517.612 203.517C517.612 202.344 517.39 201.302 516.945 200.392C516.5 199.482 515.797 198.769 514.836 198.253C513.886 197.737 512.632 197.479 511.074 197.479H505.188V224.527H500.501ZM541.483 224.997C539.188 224.997 537.21 224.507 535.552 223.526C533.903 222.535 532.629 221.144 531.729 219.354C530.839 217.554 530.394 215.445 530.394 213.028C530.394 210.642 530.839 208.538 531.729 206.718C532.629 204.897 533.883 203.476 535.491 202.455C537.109 201.434 539 200.923 541.165 200.923C542.479 200.923 543.754 201.14 544.987 201.575C546.221 202.01 547.329 202.693 548.31 203.623C549.291 204.553 550.064 205.762 550.631 207.249C551.197 208.725 551.48 210.52 551.48 212.634V214.242H532.958V210.844H547.035C547.035 209.65 546.793 208.594 546.307 207.673C545.822 206.743 545.139 206.01 544.259 205.474C543.39 204.938 542.368 204.67 541.195 204.67C539.921 204.67 538.808 204.983 537.858 205.61C536.917 206.227 536.189 207.036 535.673 208.037C535.168 209.029 534.915 210.106 534.915 211.269V213.923C534.915 215.481 535.188 216.805 535.734 217.898C536.29 218.99 537.064 219.824 538.055 220.401C539.046 220.967 540.204 221.25 541.529 221.25C542.388 221.25 543.172 221.129 543.88 220.886C544.588 220.633 545.2 220.259 545.716 219.764C546.231 219.268 546.626 218.656 546.899 217.928L551.192 218.702C550.848 219.966 550.231 221.073 549.341 222.024C548.461 222.964 547.354 223.698 546.019 224.223C544.694 224.739 543.182 224.997 541.483 224.997ZM570.599 224.997C568.415 224.997 566.508 224.497 564.88 223.495C563.252 222.494 561.988 221.093 561.088 219.293C560.188 217.493 559.738 215.39 559.738 212.983C559.738 210.566 560.188 208.452 561.088 206.642C561.988 204.832 563.252 203.426 564.88 202.425C566.508 201.423 568.415 200.923 570.599 200.923C572.783 200.923 574.69 201.423 576.318 202.425C577.946 203.426 579.21 204.832 580.11 206.642C581.011 208.452 581.461 210.566 581.461 212.983C581.461 215.39 581.011 217.493 580.11 219.293C579.21 221.093 577.946 222.494 576.318 223.495C574.69 224.497 572.783 224.997 570.599 224.997ZM570.614 221.19C572.03 221.19 573.203 220.815 574.134 220.067C575.064 219.319 575.752 218.322 576.197 217.079C576.652 215.835 576.879 214.464 576.879 212.968C576.879 211.481 576.652 210.116 576.197 208.872C575.752 207.618 575.064 206.611 574.134 205.853C573.203 205.095 572.03 204.715 570.614 204.715C569.188 204.715 568.005 205.095 567.065 205.853C566.134 206.611 565.441 207.618 564.986 208.872C564.541 210.116 564.319 211.481 564.319 212.968C564.319 214.464 564.541 215.835 564.986 217.079C565.441 218.322 566.134 219.319 567.065 220.067C568.005 220.815 569.188 221.19 570.614 221.19ZM590.795 233.265V201.226H595.225V205.004H595.604C595.867 204.518 596.246 203.957 596.742 203.32C597.237 202.683 597.925 202.126 598.805 201.651C599.685 201.166 600.848 200.923 602.294 200.923C604.175 200.923 605.854 201.398 607.33 202.349C608.807 203.299 609.965 204.67 610.804 206.46C611.653 208.25 612.078 210.404 612.078 212.922C612.078 215.44 611.659 217.599 610.819 219.4C609.98 221.19 608.827 222.57 607.36 223.541C605.894 224.502 604.22 224.982 602.339 224.982C600.923 224.982 599.766 224.744 598.865 224.269C597.975 223.794 597.278 223.237 596.772 222.6C596.266 221.963 595.877 221.397 595.604 220.901H595.331V233.265H590.795ZM595.24 212.877C595.24 214.515 595.478 215.951 595.953 217.185C596.428 218.419 597.116 219.384 598.016 220.082C598.916 220.77 600.018 221.114 601.323 221.114C602.678 221.114 603.811 220.755 604.721 220.037C605.631 219.308 606.319 218.322 606.784 217.079C607.259 215.835 607.497 214.434 607.497 212.877C607.497 211.339 607.264 209.959 606.799 208.735C606.344 207.512 605.656 206.546 604.736 205.838C603.826 205.13 602.688 204.776 601.323 204.776C600.008 204.776 598.896 205.115 597.986 205.792C597.086 206.47 596.403 207.415 595.938 208.629C595.473 209.843 595.24 211.258 595.24 212.877ZM625.968 193.459V224.527H621.432V193.459H625.968ZM646.384 224.997C644.088 224.997 642.111 224.507 640.452 223.526C638.804 222.535 637.53 221.144 636.63 219.354C635.74 217.554 635.295 215.445 635.295 213.028C635.295 210.642 635.74 208.538 636.63 206.718C637.53 204.897 638.784 203.476 640.392 202.455C642.01 201.434 643.901 200.923 646.065 200.923C647.38 200.923 648.654 201.14 649.888 201.575C651.122 202.01 652.229 202.693 653.21 203.623C654.191 204.553 654.965 205.762 655.531 207.249C656.097 208.725 656.38 210.52 656.38 212.634V214.242H637.858V210.844H651.936C651.936 209.65 651.693 208.594 651.208 207.673C650.722 206.743 650.04 206.01 649.16 205.474C648.29 204.938 647.269 204.67 646.095 204.67C644.821 204.67 643.709 204.983 642.758 205.61C641.818 206.227 641.089 207.036 640.574 208.037C640.068 209.029 639.815 210.106 639.815 211.269V213.923C639.815 215.481 640.088 216.805 640.634 217.898C641.191 218.99 641.964 219.824 642.955 220.401C643.946 220.967 645.104 221.25 646.429 221.25C647.289 221.25 648.073 221.129 648.78 220.886C649.488 220.633 650.1 220.259 650.616 219.764C651.132 219.268 651.526 218.656 651.799 217.928L656.092 218.702C655.748 219.966 655.131 221.073 654.242 222.024C653.362 222.964 652.254 223.698 650.919 224.223C649.595 224.739 648.083 224.997 646.384 224.997ZM681.626 224.527V193.459H686.313V220.492H700.391V224.527H681.626ZM709.646 224.527V201.226H714.181V224.527H709.646ZM711.936 197.631C711.147 197.631 710.47 197.368 709.904 196.842C709.347 196.306 709.069 195.669 709.069 194.931C709.069 194.182 709.347 193.545 709.904 193.019C710.47 192.483 711.147 192.215 711.936 192.215C712.725 192.215 713.398 192.483 713.954 193.019C714.52 193.545 714.803 194.182 714.803 194.931C714.803 195.669 714.52 196.306 713.954 196.842C713.398 197.368 712.725 197.631 711.936 197.631ZM744.488 201.226L736.039 224.527H731.184L722.72 201.226H727.589L733.49 219.157H733.733L739.619 201.226H744.488ZM762.272 224.997C759.977 224.997 757.999 224.507 756.341 223.526C754.692 222.535 753.418 221.144 752.518 219.354C751.628 217.554 751.183 215.445 751.183 213.028C751.183 210.642 751.628 208.538 752.518 206.718C753.418 204.897 754.672 203.476 756.28 202.455C757.898 201.434 759.789 200.923 761.954 200.923C763.268 200.923 764.543 201.14 765.776 201.575C767.01 202.01 768.118 202.693 769.099 203.623C770.08 204.553 770.853 205.762 771.42 207.249C771.986 208.725 772.269 210.52 772.269 212.634V214.242H753.747V210.844H767.824C767.824 209.65 767.582 208.594 767.096 207.673C766.611 206.743 765.928 206.01 765.048 205.474C764.179 204.938 763.157 204.67 761.984 204.67C760.71 204.67 759.597 204.983 758.647 205.61C757.706 206.227 756.978 207.036 756.462 208.037C755.957 209.029 755.704 210.106 755.704 211.269V213.923C755.704 215.481 755.977 216.805 756.523 217.898C757.079 218.99 757.853 219.824 758.844 220.401C759.835 220.967 760.993 221.25 762.318 221.25C763.177 221.25 763.961 221.129 764.669 220.886C765.377 220.633 765.989 220.259 766.505 219.764C767.02 219.268 767.415 218.656 767.688 217.928L771.981 218.702C771.637 219.966 771.02 221.073 770.13 222.024C769.25 222.964 768.143 223.698 766.808 224.223C765.483 224.739 763.971 224.997 762.272 224.997ZM799.034 206.915L794.923 207.643C794.751 207.117 794.478 206.617 794.103 206.141C793.739 205.666 793.244 205.277 792.617 204.973C791.99 204.67 791.206 204.518 790.266 204.518C788.981 204.518 787.909 204.806 787.05 205.383C786.19 205.949 785.76 206.682 785.76 207.582C785.76 208.361 786.048 208.988 786.625 209.463C787.201 209.939 788.132 210.328 789.416 210.631L793.117 211.481C795.261 211.976 796.859 212.74 797.911 213.772C798.963 214.803 799.489 216.143 799.489 217.792C799.489 219.187 799.084 220.431 798.275 221.523C797.476 222.605 796.359 223.455 794.923 224.072C793.497 224.689 791.843 224.997 789.962 224.997C787.353 224.997 785.224 224.441 783.576 223.328C781.927 222.206 780.916 220.613 780.542 218.55L784.926 217.883C785.199 219.025 785.76 219.89 786.61 220.477C787.459 221.053 788.567 221.341 789.932 221.341C791.418 221.341 792.607 221.033 793.497 220.416C794.387 219.789 794.832 219.025 794.832 218.125C794.832 217.397 794.559 216.785 794.012 216.29C793.476 215.794 792.652 215.42 791.54 215.167L787.596 214.303C785.421 213.807 783.813 213.018 782.772 211.936C781.74 210.854 781.224 209.484 781.224 207.825C781.224 206.45 781.609 205.246 782.377 204.215C783.146 203.183 784.208 202.379 785.563 201.803C786.918 201.216 788.471 200.923 790.22 200.923C792.738 200.923 794.72 201.469 796.167 202.561C797.613 203.643 798.568 205.095 799.034 206.915Z" fill="#F8F8F8"/>
<defs>
<filter id="filter0_d_1295_2973" x="36.8757" y="0.610811" width="161.407" height="214.565" filterUnits="userSpaceOnUse" color-interpolation-filters="sRGB">
<feFlood flood-opacity="0" result="BackgroundImageFix"/>
<feColorMatrix in="SourceAlpha" type="matrix" values="0 0 0 0 0 0 0 0 0 0 0 0 0 0 0 0 0 0 127 0" result="hardAlpha"/>
<feOffset dx="6.85841" dy="9.60178"/>
<feGaussianBlur stdDeviation="11.6593"/>
<feComposite in2="hardAlpha" operator="out"/>
<feColorMatrix type="matrix" values="0 0 0 0 0 0 0 0 0 0 0 0 0 0 0 0 0 0 0.18 0"/>
<feBlend mode="normal" in2="BackgroundImageFix" result="effect1_dropShadow_1295_2973"/>
<feBlend mode="normal" in="SourceGraphic" in2="effect1_dropShadow_1295_2973" result="shape"/>
</filter>
</defs>
</svg>
