<?xml version="1.0" encoding="UTF-8"?>
<svg width="100px" height="100px" viewBox="0 0 100 100" version="1.1" xmlns="http://www.w3.org/2000/svg" xmlns:xlink="http://www.w3.org/1999/xlink">
    <title>pepul</title>
    <g id="pepul" stroke="none" stroke-width="1" fill="none" fill-rule="evenodd">
        <g id="tw" transform="translate(5.000000, 5.000000)" fill="#FFFFFF" fill-rule="nonzero">
            <path d="M45,0 C69.60051,0 89.5965102,19.7499951 89.9939702,44.2559549 L90,45 C90,69.60051 70.2500049,89.5965102 45.7440451,89.9939702 L45,90 C20.39949,90 0.4034898,70.2500049 0.006029847,45.7440451 L0,45 C0,20.39949 19.7499951,0.4034898 44.2559549,0.006029847 L45,0 Z M48.903397,19 L30.992569,19 C30.1284501,19 29.5,19.6942857 29.5,20.4657143 L29.5,20.4657143 L29.5,71.5342857 C29.5,72.3057143 30.1284501,73 30.992569,73 L30.992569,73 L36.0987261,73 C36.8842887,73 37.5912951,72.3057143 37.5912951,71.5342857 L37.5912951,71.5342857 L37.5912951,53.4057143 L48.9819533,53.4057143 C58.5658174,53.4057143 66.5,45.6142857 66.5,36.0485714 C66.5,26.7142857 58.5658174,19 48.903397,19 L48.903397,19 Z M48.7462845,26.7142857 C54.1666667,26.7142857 58.4087049,30.7257143 58.4087049,35.9714286 C58.4087049,41.5257143 54.1666667,45.8457143 48.7462845,45.8457143 L48.7462845,45.8457143 L37.5912951,45.8457143 L37.5912951,26.7142857 Z" id="Combined-Shape"></path>
        </g>
    </g>
</svg>