<?xml version="1.0" encoding="UTF-8"?>
<svg width="100px" height="100px" viewBox="0 0 100 100" version="1.1" xmlns="http://www.w3.org/2000/svg" xmlns:xlink="http://www.w3.org/1999/xlink">
    <title>user@1x</title>
    <g id="user" stroke="none" stroke-width="1" fill="none" fill-rule="evenodd">
        <g id="iconfinder_group_users_people_1909305" transform="translate(6.000000, 25.000000)" fill="#FFFFFF" fill-rule="nonzero">
            <ellipse id="Oval" cx="43.5" cy="12.75" rx="12.6875" ry="12.75"></ellipse>
            <path d="M63.0025,34.3521429 C56.9978699,31.1034742 50.3172927,29.3190345 43.5,29.1428571 C36.6950288,29.324712 30.0275088,31.1089805 24.03375,34.3521429 C20.4048464,36.2240984 18.123523,39.9793984 18.1248731,44.0785714 L18.1248731,45.7542857 C18.1153418,47.1421751 18.6572187,48.4765551 19.6304091,49.4613787 C20.6035996,50.4462023 21.9276302,51 23.30875,51 L63.69125,51 C65.0723698,51 66.3964004,50.4462023 67.3695909,49.4613787 C68.3427813,48.4765551 68.8846582,47.1421751 68.8751269,45.7542857 L68.8751269,44.0785714 C68.8834678,39.987387 66.6173454,36.2340829 63.0025,34.3521429 Z" id="Shape"></path>
            <ellipse id="Oval" cx="16.3125" cy="9.10714286" rx="9.0625" ry="9.10714286"></ellipse>
            <ellipse id="Oval" cx="70.6875" cy="9.10714286" rx="9.0625" ry="9.10714286"></ellipse>
            <path d="M83.085,23.7878571 C79.3384092,21.5099971 75.0650575,20.2543238 70.6875,20.145 C66.3099425,20.2543238 62.0365908,21.5099971 58.29,23.7878571 C57.7303392,24.1313944 57.2183927,24.5478688 56.7675,25.0264286 C56.3364908,25.470632 56.1601211,26.1047582 56.2994801,26.7091651 C56.4388391,27.313572 56.8747588,27.8051274 57.45625,28.0135714 C59.943828,28.8692747 62.3667759,29.9041003 64.70625,31.11 C66.7597142,32.1924069 68.5249127,33.7539333 69.85375,35.6635714 C70.195809,36.1463819 70.7502369,36.431756 71.34,36.4285978 L83.19375,36.4285978 C85.3935444,36.2917108 87.0829262,34.4161522 87,32.2028571 L87,31.0371429 C87.0508919,28.0978443 85.5651571,25.3467544 83.085,23.7878571 Z" id="Shape"></path>
            <path d="M22.36625,31.11 C24.7052407,29.9030631 27.1282645,28.8682052 29.61625,28.0135714 C30.1977412,27.8051274 30.6336609,27.313572 30.7730199,26.7091651 C30.9123789,26.1047582 30.7360092,25.470632 30.305,25.0264286 C29.8538193,24.5481817 29.3419162,24.1317427 28.7825,23.7878571 C25.0359092,21.5099971 20.7625575,20.2543238 16.385,20.145 C12.0074425,20.2543238 7.73409076,21.5099971 3.9875,23.7878571 C1.49611225,25.3534685 0.00875945132,28.1213939 0.0725,31.0735714 L0.0725,32.2392857 C0.00962884887,34.4386512 1.69348704,36.2919617 3.87875,36.4285978 L15.7325,36.4285978 C16.3222631,36.431756 16.876691,36.1463819 17.21875,35.6635714 C18.5475873,33.7539333 20.3127858,32.1924069 22.36625,31.11 Z" id="Shape"></path>
        </g>
    </g>
</svg>