<svg xmlns="http://www.w3.org/2000/svg" xmlns:xlink="http://www.w3.org/1999/xlink" viewBox="0 0 805 23"><defs><style>.cls-1{fill:url(#linear-gradient);}.cls-2{fill:url(#linear-gradient-2);}.cls-3{fill:url(#linear-gradient-3);}.cls-4{fill:url(#linear-gradient-4);}.cls-5{fill:url(#linear-gradient-5);}.cls-6{fill:url(#linear-gradient-6);}.cls-7{fill:url(#linear-gradient-7);}.cls-8{fill:url(#linear-gradient-8);}</style><linearGradient id="linear-gradient" x1="184.51" y1="26.75" x2="185.51" y2="26.75" gradientTransform="matrix(402.5, 0, 0, -11.91, -74264.5, 325.24)" gradientUnits="userSpaceOnUse"><stop offset="0" stop-color="#929292"/><stop offset="0.01" stop-color="#c1c1c1"/><stop offset="0.03" stop-color="#b2b2b2"/><stop offset="0.05" stop-color="#9c9c9c"/><stop offset="0.07" stop-color="#a4a4a4"/><stop offset="0.09" stop-color="#afafaf"/><stop offset="1" stop-color="#cfcfcf"/></linearGradient><linearGradient id="linear-gradient-2" x1="184.75" y1="29.5" x2="185.75" y2="29.5" gradientTransform="matrix(805, 0, 0, -1, -148727, 30)" gradientUnits="userSpaceOnUse"><stop offset="0.01" stop-color="#f8f8f8"/><stop offset="0.06" stop-color="#d0d0d0"/><stop offset="0.5" stop-color="#f8f8f8"/><stop offset="0.87" stop-color="#d0d0d0"/><stop offset="0.88" stop-color="#d3d3d3"/><stop offset="0.95" stop-color="#e9e9e9"/><stop offset="1" stop-color="#f1f1f1"/></linearGradient><linearGradient id="linear-gradient-3" x1="184.51" y1="26.75" x2="185.51" y2="26.75" gradientTransform="matrix(402.5, 0, 0, -11.91, -73862, 325.24)" gradientUnits="userSpaceOnUse"><stop offset="0" stop-color="#cfcfcf"/><stop offset="0.91" stop-color="#afafaf"/><stop offset="0.93" stop-color="#a4a4a4"/><stop offset="0.95" stop-color="#9c9c9c"/><stop offset="0.97" stop-color="#b2b2b2"/><stop offset="0.99" stop-color="#c1c1c1"/><stop offset="1" stop-color="#929292"/></linearGradient><linearGradient id="linear-gradient-4" x1="184.51" y1="26.77" x2="185.51" y2="26.77" gradientTransform="matrix(402.5, 0, 0, -11.2, -74264.5, 306.12)" gradientUnits="userSpaceOnUse"><stop offset="0" stop-color="#666"/><stop offset="0.01" stop-color="#d5d5d5"/><stop offset="0.02" stop-color="#bdbdbd"/><stop offset="0.04" stop-color="#868686"/><stop offset="0.05" stop-color="#707070"/><stop offset="0.06" stop-color="#787878"/><stop offset="0.07" stop-color="#8e8e8e"/><stop offset="0.09" stop-color="#b2b2b2"/><stop offset="0.09" stop-color="#bcbcbc"/><stop offset="1" stop-color="#f1f1f1"/></linearGradient><linearGradient id="linear-gradient-5" x1="184.51" y1="26.77" x2="185.51" y2="26.77" gradientTransform="matrix(402.5, 0, 0, -11.2, -73862, 306.12)" gradientUnits="userSpaceOnUse"><stop offset="0" stop-color="#f1f1f1"/><stop offset="0.91" stop-color="#bcbcbc"/><stop offset="0.91" stop-color="#b2b2b2"/><stop offset="0.93" stop-color="#8e8e8e"/><stop offset="0.94" stop-color="#787878"/><stop offset="0.95" stop-color="#707070"/><stop offset="0.96" stop-color="#868686"/><stop offset="0.98" stop-color="#bdbdbd"/><stop offset="0.99" stop-color="#d5d5d5"/><stop offset="1" stop-color="#666"/></linearGradient><linearGradient id="linear-gradient-6" x1="183.27" y1="26.83" x2="184.27" y2="26.83" gradientTransform="matrix(114.54, 0, 0, -9.13, -20646.88, 249.39)" gradientUnits="userSpaceOnUse"><stop offset="0" stop-color="#9f9f9f"/><stop offset="0.04" stop-color="#acacac"/><stop offset="0.51" stop-color="#e5e5e5"/><stop offset="0.96" stop-color="#acacac"/><stop offset="1" stop-color="#9f9f9f"/></linearGradient><linearGradient id="linear-gradient-7" x1="183.28" y1="26.81" x2="184.28" y2="26.81" gradientTransform="matrix(115.4, 0, 0, -9.76, -20807.06, 266.55)" gradientUnits="userSpaceOnUse"><stop offset="0" stop-color="#f7f7f7"/><stop offset="0.52" stop-color="#f8f8f8"/><stop offset="1" stop-color="#f7f7f7"/></linearGradient><linearGradient id="linear-gradient-8" x1="185.25" y1="26.29" x2="185.25" y2="27.29" gradientTransform="matrix(805, 0, 0, -10.5, -148727, 298.91)" gradientUnits="userSpaceOnUse"><stop offset="0" stop-color="#575757"/><stop offset="0.74" stop-color="#b9b9b9"/><stop offset="0.85" stop-color="#b6b6b6"/><stop offset="0.94" stop-color="#acacac"/><stop offset="1" stop-color="#9f9f9f"/></linearGradient></defs><g id="Layer_2" data-name="Layer 2"><g id="Layer_1-2" data-name="Layer 1"><g id="videobottom"><g id="Group-22-Copy"><g id="object"><rect id="Rectangle" class="cls-1" y="0.59" width="402.5" height="11.91"/><rect id="Rectangle-2" data-name="Rectangle" class="cls-2" width="805" height="1"/><rect id="Rectangle-3" data-name="Rectangle" class="cls-3" x="402.5" y="0.59" width="402.5" height="11.91"/><rect id="Rectangle-4" data-name="Rectangle" class="cls-4" y="0.59" width="402.5" height="11.2"/><rect id="Rectangle-5" data-name="Rectangle" class="cls-5" x="402.5" y="0.59" width="402.5" height="11.2"/><path id="Path" class="cls-6" d="M459.79,0a9.25,9.25,0,0,1-9.33,9.13H354.53A9.4,9.4,0,0,1,348,6.45,9,9,0,0,1,345.25,0Z"/><path id="Path-2" data-name="Path" class="cls-7" d="M459.79,0a9.24,9.24,0,0,1-9.29,9.13h-96A9.4,9.4,0,0,1,348,6.45,9,9,0,0,1,345.25,0h-.46V.68a9,9,0,0,0,2.74,6.44,9.43,9.43,0,0,0,6.6,2.64h96.78A9.18,9.18,0,0,0,460.2.68V0Z"/><path id="Path-3" data-name="Path" class="cls-8" d="M0,12.5A366.59,366.59,0,0,0,87.42,23H717.57A366.67,366.67,0,0,0,805,12.5Z"/></g></g></g></g></g></svg>