<?xml version="1.0" encoding="UTF-8"?>
<svg width="700px" height="480px" viewBox="0 0 700 480" version="1.1" xmlns="http://www.w3.org/2000/svg" xmlns:xlink="http://www.w3.org/1999/xlink">
    <title>videomain</title>
    <defs>
        <linearGradient x1="49.9964417%" y1="100%" x2="49.9964417%" y2="0.00447559098%" id="linearGradient-1">
            <stop stop-color="#9A9A9A" offset="0%"></stop>
            <stop stop-color="#A2A2A2" offset="9%"></stop>
            <stop stop-color="#B8B8B8" offset="24%"></stop>
            <stop stop-color="#DBDBDB" offset="42%"></stop>
            <stop stop-color="#E2E2E2" offset="45%"></stop>
            <stop stop-color="#C5C5C5" offset="100%"></stop>
        </linearGradient>
        <linearGradient x1="49.9992883%" y1="100%" x2="49.9992883%" y2="0.00196409385%" id="linearGradient-2">
            <stop stop-color="#404040" offset="0%"></stop>
            <stop stop-color="#434343" offset="28%"></stop>
            <stop stop-color="#4B4B4B" offset="45%"></stop>
            <stop stop-color="#595959" offset="59%"></stop>
            <stop stop-color="#6D6D6D" offset="71%"></stop>
            <stop stop-color="#888888" offset="82%"></stop>
            <stop stop-color="#A7A7A7" offset="92%"></stop>
            <stop stop-color="#C5C5C5" offset="100%"></stop>
        </linearGradient>
        <path d="M667.566797,17.0928726 L667.566797,423.592241 L0,423.592241 L0,17.0928726 C0.0474996156,7.63543312 7.87205718,-0.00520167948 17.5042285,0 L650.014638,0 C659.6655,-0.0311732661 667.519256,7.61703048 667.566797,17.0928726 Z" id="path-3"></path>
    </defs>
    <g id="videomain" stroke="none" stroke-width="1" fill="none" fill-rule="evenodd">
        <g id="object" transform="translate(5.000000, 11.000000)">
            <path d="M669.954215,2.95097606 L21.0949575,2.95097606 C15.5454465,2.91502115 10.2088287,5.08578444 6.25982505,8.98611409 C2.31082136,12.8864437 0.0731357884,18.1966255 0.0393379161,23.7477579 L0.0393379161,457.888383 L3.0486885,457.888383 L3.0486885,20.7670498 C3.06373084,19.8632912 3.14922226,18.9620828 3.30438495,18.071624 C3.30438495,17.7765044 3.40272974,17.4813848 3.46173662,17.1961025 C3.52074349,16.9108202 3.58958485,16.6255379 3.66826068,16.3402556 C3.74693651,16.0549734 3.81577786,15.7696911 3.90428817,15.4942461 C4.64910753,13.1565446 5.8714803,10.9991871 7.49387302,9.15901174 C7.68072812,8.94259069 7.86758322,8.72616964 8.07410728,8.51958591 L8.37897613,8.2244663 C9.29524899,7.31420324 10.3075701,6.50609138 11.3981612,5.8143228 C11.7718714,5.57822711 12.1455816,5.36180606 12.5291263,5.15522233 C12.912671,4.9486386 13.2962156,4.76172951 13.6994293,4.58465774 L13.6994293,4.58465774 L14.5058566,4.25018885 L14.5058566,4.25018885 C16.5796052,3.44597237 18.782354,3.02596248 21.0064472,3.01068648 L669.905042,3.01068648 C672.896777,3.00621786 675.843045,3.74299774 678.480708,5.15522233 C678.864253,5.36180606 679.237963,5.57822711 679.601839,5.8143228 C679.965715,6.05041849 680.585287,6.45374863 681.018004,6.79805484 L681.018004,6.79805484 C681.244197,6.97512661 681.47039,7.15219838 681.686748,7.33910746 L681.686748,7.33910746 C682.011286,7.61455243 682.325989,7.90967205 682.670196,8.21462898 L682.975065,8.50974859 C683.171755,8.71633232 683.368444,8.93275337 683.555299,9.14917442 C686.38697,12.3526926 687.950398,16.4810557 687.951312,20.7572125 L687.951312,457.888383 L691,457.888383 L691,22.4393943 C690.236203,11.4005802 681.015885,2.86285671 669.954215,2.95097606 Z" id="Path" fill="url(#linearGradient-1)" fill-rule="nonzero"></path>
            <path d="M0,20.7768872 C0.0758119282,9.2416706 9.47444201,-0.0540418506 21.0064472,0.000466428254 L669.905042,0.000466428254 C681.453988,-0.0758583188 690.879467,9.22463867 690.960662,20.7768872 L690.960662,22.4393943 C690.197773,11.4158296 681.000761,2.8837397 669.954215,2.95166255 L21.0949575,2.95166255 C15.5454465,2.91502115 10.2088287,5.08578444 6.25982505,8.98611409 C2.31082136,12.8864437 0.0731357884,18.1966255 0.0393379161,23.7477579 L0,20.7768872 Z" id="Path" fill="url(#linearGradient-2)" fill-rule="nonzero"></path>
            <rect id="Rectangle" fill="#3D3D3D" fill-rule="nonzero" x="3.0486885" y="445.729455" width="684.863285" height="12.158928"></rect>
            <path d="M687.911974,20.8752604 L687.911974,445.729455 L3.0486885,445.729455 L3.0486885,20.8752604 C3.09741882,10.9907855 11.1247087,3.00515007 21.0064472,3.01058663 L669.905042,3.01058663 C679.805957,2.97800578 687.863201,10.9715519 687.911974,20.8752604 Z" id="Path" fill="#000000" fill-rule="nonzero"></path>
            <g id="Image-1-Copy-2@2x" transform="translate(11.696933, 12.573900)">
                <mask id="mask-4" fill="white">
                    <use xlink:href="#path-3"></use>
                </mask>
                <use id="Mask" fill="#22252A" fill-rule="nonzero" xlink:href="#path-3"></use>
            </g>
            <polygon id="Path" fill="#666666" fill-rule="nonzero" points="690.960662 457.888383 690.960662 459 687.911974 459 687.911974 459 3.0486885 459 3.0486885 459 0.0393379161 459 0.0393379161 457.888383"></polygon>
            <polygon id="Path" fill="#FFFFFF" fill-rule="nonzero" opacity="0.12" style="mix-blend-mode: multiply;" points="679.444487 8.1752797 679.503494 8.1752797 679.58217 8.25397826"></polygon>
        </g>
    </g>
</svg>